<?xml version="1.0" encoding="utf-8"?>
<!-- Generator: Adobe Illustrator 17.0.0, SVG Export Plug-In . SVG Version: 6.00 Build 0)  -->
<!DOCTYPE svg PUBLIC "-//W3C//DTD SVG 1.1//EN" "http://www.w3.org/Graphics/SVG/1.1/DTD/svg11.dtd">
<svg version="1.1" id="Ebene_1" xmlns="http://www.w3.org/2000/svg" xmlns:xlink="http://www.w3.org/1999/xlink" x="0px" y="0px"
	 width="595.337px" height="107.956px" viewBox="0 0 595.337 107.956" enable-background="new 0 0 595.337 107.956"
	 xml:space="preserve">
<g>
	<path fill="#888888" d="M111.327,39.562h4.224v14.545h0.096c0.672-1.2,1.728-2.304,3.024-3.024c1.248-0.72,2.736-1.152,4.32-1.152
		c3.12,0,8.113,1.92,8.113,9.889v13.825h-4.225V60.3c0-3.744-1.392-6.865-5.377-6.865c-2.736,0-4.848,1.92-5.664,4.177
		c-0.24,0.624-0.288,1.248-0.288,2.016v14.017h-4.224L111.327,39.562L111.327,39.562z"/>
	<path fill="#888888" d="M140.318,62.795c0.096,5.713,3.696,8.065,7.969,8.065c3.024,0,4.896-0.528,6.433-1.2l0.768,3.024
		c-1.488,0.672-4.081,1.488-7.777,1.488c-7.152,0-11.425-4.753-11.425-11.761c0-7.009,4.129-12.481,10.897-12.481
		c7.632,0,9.601,6.624,9.601,10.897c0,0.864-0.048,1.488-0.144,1.968H140.318z M152.704,59.772c0.048-2.641-1.104-6.817-5.856-6.817
		c-4.321,0-6.145,3.889-6.481,6.817H152.704z"/>
	<path fill="#888888" d="M166.718,43.882c0,1.44-1.008,2.592-2.688,2.592c-1.536,0-2.544-1.152-2.544-2.592s1.056-2.64,2.641-2.64
		C165.663,41.242,166.718,42.394,166.718,43.882z M162.014,73.645V50.411h4.224v23.234H162.014z"/>
	<path fill="#888888" d="M172.669,69.372c1.296,0.768,3.504,1.632,5.617,1.632c3.024,0,4.464-1.488,4.464-3.457
		c0-2.016-1.2-3.072-4.272-4.224c-4.225-1.536-6.192-3.792-6.192-6.577c0-3.744,3.072-6.816,8.017-6.816
		c2.352,0,4.417,0.624,5.665,1.44l-1.008,3.072c-0.912-0.576-2.592-1.392-4.752-1.392c-2.496,0-3.84,1.44-3.84,3.168
		c0,1.92,1.344,2.784,4.369,3.984c3.984,1.488,6.096,3.504,6.096,6.961c0,4.128-3.216,7.008-8.641,7.008
		c-2.544,0-4.896-0.672-6.529-1.632L172.669,69.372z"/>
	<path fill="#888888" d="M194.605,62.795c0.096,5.713,3.696,8.065,7.969,8.065c3.024,0,4.897-0.528,6.433-1.2l0.768,3.024
		c-1.487,0.672-4.08,1.488-7.776,1.488c-7.152,0-11.425-4.753-11.425-11.761c0-7.009,4.129-12.481,10.897-12.481
		c7.633,0,9.602,6.624,9.602,10.897c0,0.864-0.048,1.488-0.145,1.968H194.605z M206.99,59.772c0.049-2.641-1.104-6.817-5.856-6.817
		c-4.32,0-6.144,3.889-6.48,6.817H206.99z"/>
	<path fill="#661136" d="M231.682,73.645V70.1h5.596V33.45h-5.596v-3.545h22.441c7.852,0,13.858,1.875,18.018,5.625
		c4.16,3.75,6.24,9.151,6.24,16.201c0,7.09-2.085,12.515-6.255,16.274c-4.17,3.76-10.171,5.64-18.003,5.64L231.682,73.645
		L231.682,73.645z M248.557,70.1h4.072c4.57,0,7.915-1.465,10.034-4.395c2.119-2.93,3.179-7.588,3.179-13.975
		c0-6.347-1.055-10.982-3.164-13.901s-5.459-4.38-10.049-4.38h-4.072L248.557,70.1L248.557,70.1z"/>
	<path fill="#661136" d="M317.55,59.553h-21.416v0.234c0,4.024,0.605,6.929,1.816,8.716c1.211,1.787,3.164,2.681,5.859,2.681
		c2.246,0,4.062-0.596,5.449-1.787c1.387-1.191,2.275-2.919,2.666-5.186h4.863c-0.84,3.535-2.51,6.133-5.01,7.793
		s-5.996,2.49-10.488,2.49c-5.391,0-9.526-1.421-12.407-4.263c-2.881-2.842-4.321-6.899-4.321-12.173
		c0-5.156,1.475-9.18,4.424-12.07c2.949-2.89,7.051-4.336,12.305-4.336c5.156,0,9.111,1.519,11.865,4.556
		S317.374,53.693,317.55,59.553z M306.153,56.066c0-4.102-0.381-6.977-1.143-8.628c-0.762-1.65-2.06-2.476-3.896-2.476
		c-1.777,0-3.052,0.81-3.823,2.432s-1.157,4.336-1.157,8.145v0.527H306.153z"/>
	<path fill="#661136" d="M334.863,73.645l-11.045-27.598h-3.428v-3.545h17.871v3.545h-3.779l7.881,19.688l7.852-19.688h-4.072
		v-3.545h11.689v3.545h-3.604l-11.045,27.598H334.863z"/>
	<path fill="#661136" d="M392.986,59.553H371.57v0.234c0,4.024,0.605,6.929,1.816,8.716c1.211,1.787,3.164,2.681,5.859,2.681
		c2.246,0,4.062-0.596,5.449-1.787c1.387-1.191,2.275-2.919,2.666-5.186h4.863c-0.84,3.535-2.51,6.133-5.01,7.793
		s-5.996,2.49-10.488,2.49c-5.391,0-9.526-1.421-12.407-4.263c-2.881-2.842-4.321-6.899-4.321-12.173
		c0-5.156,1.475-9.18,4.424-12.07c2.949-2.89,7.051-4.336,12.305-4.336c5.156,0,9.111,1.519,11.865,4.556
		C391.346,49.245,392.81,53.693,392.986,59.553z M381.59,56.066c0-4.102-0.381-6.977-1.142-8.628
		c-0.762-1.65-2.061-2.476-3.897-2.476c-1.777,0-3.052,0.81-3.823,2.432s-1.157,4.336-1.157,8.145v0.527H381.59z"/>
	<path fill="#661136" d="M413.757,70.1h4.453v3.545h-19.248V70.1h4.424V31.575h-4.424v-3.516h14.795V70.1L413.757,70.1z"/>
	<path fill="#661136" d="M440.943,74.494c-5.488,0-9.79-1.46-12.905-4.38c-3.115-2.919-4.673-6.939-4.673-12.056
		c0-5.137,1.558-9.155,4.673-12.056c3.115-2.9,7.417-4.351,12.905-4.351c5.508,0,9.814,1.45,12.92,4.351
		c3.106,2.9,4.658,6.919,4.658,12.056c0,5.117-1.558,9.136-4.673,12.056C450.733,73.034,446.432,74.494,440.943,74.494z
		 M440.943,71.184c2.188,0,3.726-0.938,4.614-2.812c0.889-1.875,1.333-5.312,1.333-10.312s-0.439-8.433-1.318-10.298
		c-0.879-1.865-2.422-2.798-4.629-2.798c-2.207,0-3.76,0.942-4.658,2.827s-1.348,5.308-1.348,10.269s0.449,8.389,1.348,10.283
		C437.184,70.236,438.736,71.184,440.943,71.184z"/>
	<path fill="#661136" d="M467.954,46.047h-4.453v-3.545h14.824v3.955c0.879-1.621,2.06-2.827,3.545-3.618
		c1.484-0.791,3.32-1.187,5.508-1.187c4.434,0,7.925,1.461,10.474,4.38c2.549,2.92,3.823,6.929,3.823,12.026
		c0,5.098-1.274,9.111-3.823,12.041s-6.04,4.395-10.474,4.395c-2.188,0-4.023-0.396-5.508-1.186
		c-1.484-0.791-2.666-1.997-3.545-3.618v12.891h4.805v3.545h-19.629v-3.545h4.453L467.954,46.047L467.954,46.047z M478.325,56.535
		v3.076c0,3.633,0.464,6.26,1.392,7.881c0.928,1.622,2.427,2.432,4.497,2.432c2.129,0,3.628-0.859,4.497-2.578
		c0.869-1.718,1.304-4.814,1.304-9.287c0-4.472-0.435-7.563-1.304-9.273c-0.869-1.709-2.368-2.563-4.497-2.563
		c-2.07,0-3.569,0.81-4.497,2.432C478.789,50.276,478.325,52.902,478.325,56.535z"/>
	<path fill="#661136" d="M540.727,59.553H519.31v0.234c0,4.024,0.606,6.929,1.817,8.716c1.211,1.787,3.164,2.681,5.859,2.681
		c2.246,0,4.062-0.596,5.449-1.787c1.387-1.191,2.275-2.919,2.666-5.186h4.863c-0.84,3.535-2.51,6.133-5.01,7.793
		s-5.996,2.49-10.488,2.49c-5.391,0-9.526-1.421-12.407-4.263s-4.321-6.899-4.321-12.173c0-5.156,1.475-9.18,4.424-12.07
		c2.949-2.89,7.051-4.336,12.305-4.336c5.156,0,9.111,1.519,11.865,4.556S540.551,53.693,540.727,59.553z M529.33,56.066
		c0-4.102-0.381-6.977-1.143-8.628c-0.762-1.65-2.06-2.476-3.896-2.476c-1.777,0-3.052,0.81-3.823,2.432s-1.157,4.336-1.157,8.145
		v0.527H529.33z"/>
	<path fill="#661136" d="M576.877,42.15v9.287h-3.311c-0.117-1.66-0.566-2.896-1.348-3.706c-0.781-0.81-1.914-1.216-3.399-1.216
		c-2.266,0-4.053,0.996-5.361,2.988c-1.309,1.992-1.963,4.756-1.963,8.291V70.1h5.654v3.545H546.7V70.1h4.424V46.047h-4.746v-3.545
		h15.117v5.537c1.016-2.168,2.358-3.775,4.028-4.819c1.67-1.044,3.716-1.567,6.138-1.567c0.605,0,1.343,0.044,2.212,0.132
		S575.744,41.994,576.877,42.15z"/>
</g>
<g>
	<path fill="#999999" d="M83.412,67.699l-2.94-2.52c3.612-4.368,5.88-10.752,5.88-16.38c0-17.052-13.356-28.14-29.82-28.14
		c-22.092,0-29.82,17.472-29.82,36.96c0,17.22,12.684,31.5,30.24,31.5c9.24,0,17.388-2.771,24.948-7.896
		c1.428-1.008,2.772-2.184,4.032-3.444l1.68,2.52c-7.056,8.652-19.068,14.28-30.24,14.28c-22.764,0-41.58-16.548-41.58-39.899
		c0-23.688,17.304-41.58,41.16-41.58c19.74,0,36.12,12.432,36.12,33.18C93.072,53.923,89.04,62.492,83.412,67.699z M62.412,39.308
		L49.224,69.38c-1.092,2.52-2.772,5.46-5.964,5.46c-2.352,0-4.116-1.68-4.116-4.032c0-1.848,0.924-3.528,1.596-5.124l14.28-32.592
		c1.092-2.436,2.436-4.284,5.292-4.284c2.352,0,4.032,1.68,4.032,4.032C64.344,35.107,63.336,37.292,62.412,39.308z M72.912,57.62
		L67.62,69.464c-1.176,2.52-2.856,5.376-6.048,5.376c-2.352,0-4.032-1.68-4.032-4.032c0-1.764,0.84-3.444,1.596-5.04l6.384-14.364
		c1.092-2.352,2.436-4.284,5.292-4.284c2.352,0,4.032,1.68,4.032,4.032C74.844,53.419,73.836,55.604,72.912,57.62z"/>
</g>
</svg>
